# xmcd
#
# Track frame offsets: 
#        150
#        17595
#        38019
#        55531
#        73072
#        90558
#        108183
#        126308
#        139398
#        157036
#        175408
#        191061
#        206970
#        238019
#
# Disc length: 4440 seconds
#
# Revision: 0
# Processed by: cddbd v1.5.1PL0 Copyright (c) Steve Scherf et al.
# Submitted via: ExactAudioCopy v0.95a5
#
DISCID=c811560e
DTITLE=Lonestar - Let's Be Us Again
DYEAR=2004
DGENRE=Country
TTITLE0=County Fair
TTITLE1=Class Reunion (That Used To Be Us)
TTITLE2=Let's Be Us Again
TTITLE3=That Gets Me
TTITLE4=Women Rule The World
TTITLE5=What I Miss The Most
TTITLE6=Let Them Be Little
TTITLE7=T.G.I.F.
TTITLE8=Summertime
TTITLE9=Now
TTITLE10=Mr. Mom
TTITLE11=From There To Here (with Randy Owen)
TTITLE12=Somebody's Someone
TTITLE13=Data
EXTD=
EXTT0=
EXTT1=
EXTT2=
EXTT3=
EXTT4=
EXTT5=
EXTT6=
EXTT7=
EXTT8=
EXTT9=
EXTT10=
EXTT11=
EXTT12=
EXTT13=
PLAYORDER=
